<?xml version="1.0" encoding="iso-8859-1"?>
<!-- Generator: Adobe Illustrator 19.0.0, SVG Export Plug-In . SVG Version: 6.00 Build 0)  -->
<svg version="1.1" id="Layer_1" xmlns="http://www.w3.org/2000/svg" xmlns:xlink="http://www.w3.org/1999/xlink" x="0px" y="0px"
	 viewBox="0 0 512.122 512.122" style="enable-background:new 0 0 512.122 512.122;" xml:space="preserve">
<g transform="translate(-1 -1)">
	<g>
		<g>
			<path d="M363.728,246.501c-11.776,0-21.333,9.557-21.333,21.333s9.557,21.333,21.333,21.333s21.333-9.557,21.333-21.333
				S375.504,246.501,363.728,246.501z"/>
			<path d="M321.061,203.835c-11.776,0-21.333,9.557-21.333,21.333s9.557,21.333,21.333,21.333s21.333-9.557,21.333-21.333
				S332.837,203.835,321.061,203.835z"/>
			<path d="M406.395,203.835c-11.776,0-21.333,9.557-21.333,21.333s9.557,21.333,21.333,21.333s21.333-9.557,21.333-21.333
				S418.171,203.835,406.395,203.835z"/>
			<path d="M214.394,203.835h-21.333v-21.333c0-11.782-9.551-21.333-21.333-21.333c-11.782,0-21.333,9.551-21.333,21.333v21.333
				h-21.333c-11.782,0-21.333,9.551-21.333,21.333s9.551,21.333,21.333,21.333h21.333v21.333c0,11.782,9.551,21.333,21.333,21.333
				c11.782,0,21.333-9.551,21.333-21.333v-21.333h21.333c11.782,0,21.333-9.551,21.333-21.333S226.177,203.835,214.394,203.835z"/>
			<path d="M496.599,257.199c-0.911-5.156-0.911-5.156-1.823-10.299c-7.785-43.863-10.028-56.98-12.782-76.028
				c-7.861-54.341-24.634-88.664-49.664-105.383c-19.093-12.754-39.507-13.531-57.959-7.337c-4.214,1.414-7.496,2.926-9.735,4.193
				c-21.938,13.576-42.207,21.709-61.018,25.869c-12.031,2.661-21.46,3.321-27.695,2.957c-0.591-0.042-2.669-0.146-2.669-0.146
				h-32.384l-2.394,0.135c-6.511,0.376-15.939-0.285-27.971-2.945c-18.812-4.16-39.08-12.293-60.286-25.435
				c-2.972-1.701-6.254-3.212-10.467-4.627c-18.452-6.193-38.866-5.417-57.959,7.337c-25.03,16.719-41.803,51.042-49.663,105.382
				c-2.754,19.049-4.997,32.166-12.782,76.029c-0.912,5.143-0.912,5.143-1.823,10.299C4.133,333.109-0.812,372.553,1.58,404.023
				c4.033,53.038,38.21,72.518,86.018,39.486c12.776-8.84,24.386-20.255,35.416-34.211c0.451-0.571,7.334-9.53,9.61-12.341
				c3.934-4.86,7.659-9.001,11.701-12.884c21.027-20.206,48.814-31.446,91.131-30.906l42.939,0.002
				c42.59-0.542,70.376,10.698,91.404,30.904c4.042,3.884,7.767,8.025,11.701,12.884c2.275,2.811,9.159,11.77,9.602,12.331
				c11.038,13.966,22.647,25.381,35.412,34.213c47.82,33.04,81.997,13.56,86.029-39.479
				C514.935,372.553,509.99,333.109,496.599,257.199z M469.998,400.788c-1.659,21.815-0.023,20.883-19.221,7.618
				c-8.963-6.201-17.616-14.711-26.195-25.565c-0.125-0.158-7.233-9.409-9.92-12.73c-4.977-6.148-9.858-11.574-15.301-16.804
				c-28.998-27.866-67.52-43.463-121.1-42.806h-42.533c-53.38-0.684-91.943,14.917-120.967,42.806
				c-5.443,5.23-10.324,10.656-15.301,16.804c-2.688,3.32-9.795,12.571-9.928,12.739c-8.571,10.844-17.224,19.354-26.199,25.563
				c-19.187,13.257-17.551,14.189-19.209-7.626c-2.009-26.43,2.739-64.305,15.417-136.176c0.906-5.126,0.906-5.126,1.815-10.255
				c7.878-44.387,10.153-57.69,12.999-77.378c6.291-43.493,17.843-67.13,31.135-76.01c6.663-4.451,13.681-4.718,20.683-2.368
				c1.452,0.487,2.299,0.878,2.301,0.879c24.616,15.275,49.374,25.21,72.816,30.394c16.015,3.542,29.366,4.477,39.398,3.891
				c0.453-0.031,31.688-0.073,31.688-0.073c11.087,0.66,24.438-0.276,40.452-3.817c23.441-5.184,48.199-15.119,73.548-30.828
				c-0.731,0.433,0.117,0.043,1.569-0.445c7.002-2.35,14.02-2.083,20.683,2.368c13.293,8.879,24.844,32.517,31.135,76.011
				c2.846,19.687,5.121,32.99,12.999,77.377c0.91,5.129,0.91,5.129,1.815,10.255C467.259,336.483,472.008,374.358,469.998,400.788z"
				/>
			<path d="M363.728,203.835c11.776,0,21.333-9.557,21.333-21.333s-9.557-21.333-21.333-21.333s-21.333,9.557-21.333,21.333
				S351.952,203.835,363.728,203.835z"/>
		</g>
	</g>
</g>
<g>
</g>
<g>
</g>
<g>
</g>
<g>
</g>
<g>
</g>
<g>
</g>
<g>
</g>
<g>
</g>
<g>
</g>
<g>
</g>
<g>
</g>
<g>
</g>
<g>
</g>
<g>
</g>
<g>
</g>
</svg>
