<?xml version="1.0" encoding="iso-8859-1"?>
<!-- Generator: Adobe Illustrator 19.0.0, SVG Export Plug-In . SVG Version: 6.00 Build 0)  -->
<svg version="1.1" id="Layer_1" xmlns="http://www.w3.org/2000/svg" xmlns:xlink="http://www.w3.org/1999/xlink" x="0px" y="0px"
	 viewBox="0 0 512 512" style="enable-background:new 0 0 512 512;" xml:space="preserve">
<g>
	<g>
		<path d="M473.874,295.661v-44.802c0-59.731-22.605-115.908-63.651-158.187C369.054,50.269,314.283,26.916,256,26.916
			c-58.283,0-113.054,23.353-154.223,65.756c-41.046,42.279-63.651,98.458-63.651,158.187v44.801
			C15.716,305.401,0,327.743,0,353.695v68.137c0,34.878,28.374,63.253,63.252,63.253h87.561V290.443h-81.34v-39.584
			c0-106.198,83.675-192.597,186.527-192.597s186.527,86.398,186.527,192.597v39.584h-81.34v194.641h87.561
			c34.878,0,63.252-28.375,63.252-63.253v-68.137C512,327.743,496.284,305.401,473.874,295.661z M97.176,321.79h22.291v131.948
			H97.176V321.79z M65.829,453.738h-2.577c-17.593,0-31.905-14.313-31.905-31.906v-68.137c0-17.592,14.312-31.905,31.905-31.905
			h2.577V453.738z M414.824,453.738h-22.291V321.79h22.291V453.738z M480.653,421.832c0,17.593-14.312,31.906-31.905,31.906h-2.577
			V321.79h2.577c17.593,0,31.905,14.313,31.905,31.905V421.832z"/>
	</g>
</g>
</svg>
